<?xml version="1.0" standalone="no"?>
<!DOCTYPE svg PUBLIC "-//W3C//DTD SVG 20010904//EN"
 "http://www.w3.org/TR/2001/REC-SVG-20010904/DTD/svg10.dtd">
<svg version="1.0" xmlns="http://www.w3.org/2000/svg"
 width="77.000000pt" height="77.000000pt" viewBox="0 0 77.000000 77.000000"
 preserveAspectRatio="xMidYMid meet">
<metadata>
Created by potrace 1.11, written by Peter Selinger 2001-2013
</metadata>
<g transform="translate(0.000000,77.000000) scale(0.100000,-0.100000)"
fill="#000000" stroke="none">
<path d="M359 742 c-38 -42 -40 -48 -28 -79 23 -59 20 -66 -13 -34 l-31 30
-24 -25 c-23 -25 -23 -27 -6 -40 10 -7 21 -14 24 -14 15 -1 50 -84 51 -122 2
-73 -1 -84 -27 -112 -49 -53 -131 -23 -177 67 -29 58 -21 145 21 223 17 32 29
59 27 61 -7 7 -107 -110 -125 -146 -52 -102 -52 -234 -2 -336 40 -80 96 -137
179 -177 60 -30 75 -33 157 -33 82 0 97 3 156 32 193 95 273 325 179 513 -21
41 -94 126 -121 140 -15 9 -13 2 9 -32 75 -116 68 -239 -18 -312 -53 -44 -110
-35 -139 23 -34 67 -4 190 55 221 21 12 22 14 7 36 -20 31 -34 30 -67 -3 l-27
-27 7 29 c4 17 11 38 16 48 10 19 4 30 -38 74 l-21 23 -24 -28z"/>
</g>
</svg>
